<mxfile host="app.diagrams.net" modified="2023-05-20T14:30:22.318Z" agent="Mozilla/5.0 (Windows NT 10.0; Win64; x64) AppleWebKit/537.36 (KHTML, like Gecko) Chrome/113.0.0.0 Safari/537.36" etag="93OGIYtD6yyLsmHlAOSd" version="21.3.2" type="github">
  <diagram name="第 1 页" id="fD-oArxu0OhsGuzDw_NQ">
    <mxGraphModel dx="2074" dy="1148" grid="1" gridSize="10" guides="1" tooltips="1" connect="1" arrows="1" fold="1" page="1" pageScale="1" pageWidth="827" pageHeight="1169" math="0" shadow="0">
      <root>
        <mxCell id="0" />
        <mxCell id="1" parent="0" />
        <mxCell id="D_7bK3RFoGBD-ZXau366-17" style="edgeStyle=orthogonalEdgeStyle;rounded=0;orthogonalLoop=1;jettySize=auto;html=1;exitX=0.5;exitY=0;exitDx=0;exitDy=0;" edge="1" parent="1" source="D_7bK3RFoGBD-ZXau366-4">
          <mxGeometry relative="1" as="geometry">
            <mxPoint x="110" y="210" as="targetPoint" />
          </mxGeometry>
        </mxCell>
        <mxCell id="D_7bK3RFoGBD-ZXau366-4" value="match" style="rounded=1;whiteSpace=wrap;html=1;" vertex="1" parent="1">
          <mxGeometry x="50" y="330" width="120" height="60" as="geometry" />
        </mxCell>
        <mxCell id="D_7bK3RFoGBD-ZXau366-9" style="edgeStyle=orthogonalEdgeStyle;rounded=0;orthogonalLoop=1;jettySize=auto;html=1;exitX=0.5;exitY=1;exitDx=0;exitDy=0;entryX=0.5;entryY=1;entryDx=0;entryDy=0;" edge="1" parent="1" source="D_7bK3RFoGBD-ZXau366-5" target="D_7bK3RFoGBD-ZXau366-4">
          <mxGeometry relative="1" as="geometry">
            <Array as="points">
              <mxPoint x="290" y="420" />
              <mxPoint x="110" y="420" />
            </Array>
          </mxGeometry>
        </mxCell>
        <mxCell id="D_7bK3RFoGBD-ZXau366-14" style="edgeStyle=orthogonalEdgeStyle;rounded=0;orthogonalLoop=1;jettySize=auto;html=1;exitX=1;exitY=0.5;exitDx=0;exitDy=0;" edge="1" parent="1" source="D_7bK3RFoGBD-ZXau366-5">
          <mxGeometry relative="1" as="geometry">
            <mxPoint x="630" y="420" as="targetPoint" />
            <Array as="points">
              <mxPoint x="390" y="360" />
              <mxPoint x="390" y="420" />
            </Array>
          </mxGeometry>
        </mxCell>
        <mxCell id="D_7bK3RFoGBD-ZXau366-5" value="match_prefix" style="rounded=1;whiteSpace=wrap;html=1;" vertex="1" parent="1">
          <mxGeometry x="230" y="330" width="120" height="60" as="geometry" />
        </mxCell>
        <mxCell id="D_7bK3RFoGBD-ZXau366-15" style="edgeStyle=orthogonalEdgeStyle;rounded=0;orthogonalLoop=1;jettySize=auto;html=1;exitX=1;exitY=0.5;exitDx=0;exitDy=0;" edge="1" parent="1" source="D_7bK3RFoGBD-ZXau366-6">
          <mxGeometry relative="1" as="geometry">
            <mxPoint x="630" y="360" as="targetPoint" />
          </mxGeometry>
        </mxCell>
        <mxCell id="D_7bK3RFoGBD-ZXau366-6" value="not_match(Buffered)" style="rounded=1;whiteSpace=wrap;html=1;" vertex="1" parent="1">
          <mxGeometry x="413.5" y="330" width="120" height="60" as="geometry" />
        </mxCell>
        <mxCell id="D_7bK3RFoGBD-ZXau366-12" style="edgeStyle=orthogonalEdgeStyle;rounded=0;orthogonalLoop=1;jettySize=auto;html=1;exitX=0.5;exitY=1;exitDx=0;exitDy=0;entryX=0.5;entryY=0;entryDx=0;entryDy=0;" edge="1" parent="1" source="D_7bK3RFoGBD-ZXau366-11" target="D_7bK3RFoGBD-ZXau366-5">
          <mxGeometry relative="1" as="geometry" />
        </mxCell>
        <mxCell id="D_7bK3RFoGBD-ZXau366-13" style="edgeStyle=orthogonalEdgeStyle;rounded=0;orthogonalLoop=1;jettySize=auto;html=1;exitX=1;exitY=0.5;exitDx=0;exitDy=0;entryX=0.5;entryY=0;entryDx=0;entryDy=0;" edge="1" parent="1" source="D_7bK3RFoGBD-ZXau366-11" target="D_7bK3RFoGBD-ZXau366-6">
          <mxGeometry relative="1" as="geometry" />
        </mxCell>
        <mxCell id="D_7bK3RFoGBD-ZXau366-11" value="empty" style="rounded=1;whiteSpace=wrap;html=1;" vertex="1" parent="1">
          <mxGeometry x="230" y="230" width="120" height="60" as="geometry" />
        </mxCell>
        <mxCell id="D_7bK3RFoGBD-ZXau366-16" value="Flush" style="text;html=1;align=center;verticalAlign=middle;resizable=0;points=[];autosize=1;strokeColor=none;fillColor=none;" vertex="1" parent="1">
          <mxGeometry x="555" y="330" width="50" height="30" as="geometry" />
        </mxCell>
        <mxCell id="D_7bK3RFoGBD-ZXau366-18" value="replace with *&lt;br&gt;Flush" style="text;html=1;align=center;verticalAlign=middle;resizable=0;points=[];autosize=1;strokeColor=none;fillColor=none;" vertex="1" parent="1">
          <mxGeometry x="10" y="270" width="100" height="40" as="geometry" />
        </mxCell>
        <mxCell id="D_7bK3RFoGBD-ZXau366-20" value="match_key" style="text;html=1;align=center;verticalAlign=middle;resizable=0;points=[];autosize=1;strokeColor=none;fillColor=none;" vertex="1" parent="1">
          <mxGeometry x="135" y="418" width="80" height="30" as="geometry" />
        </mxCell>
        <mxCell id="D_7bK3RFoGBD-ZXau366-21" value="match_prefix" style="text;html=1;align=center;verticalAlign=middle;resizable=0;points=[];autosize=1;strokeColor=none;fillColor=none;" vertex="1" parent="1">
          <mxGeometry x="200" y="300" width="90" height="30" as="geometry" />
        </mxCell>
        <mxCell id="D_7bK3RFoGBD-ZXau366-22" value="not_match" style="text;html=1;align=center;verticalAlign=middle;resizable=0;points=[];autosize=1;strokeColor=none;fillColor=none;" vertex="1" parent="1">
          <mxGeometry x="420" y="228" width="80" height="30" as="geometry" />
        </mxCell>
        <mxCell id="D_7bK3RFoGBD-ZXau366-23" value="not_match Flush" style="text;html=1;align=center;verticalAlign=middle;resizable=0;points=[];autosize=1;strokeColor=none;fillColor=none;" vertex="1" parent="1">
          <mxGeometry x="423.5" y="428" width="110" height="30" as="geometry" />
        </mxCell>
        <mxCell id="D_7bK3RFoGBD-ZXau366-24" value="Flush: reset buffer &amp;amp; reset flag" style="text;html=1;align=center;verticalAlign=middle;resizable=0;points=[];autosize=1;strokeColor=none;fillColor=none;" vertex="1" parent="1">
          <mxGeometry x="60" y="498" width="180" height="30" as="geometry" />
        </mxCell>
      </root>
    </mxGraphModel>
  </diagram>
</mxfile>
